# xmcd
#
# Track frame offsets:
#	150
#	13164
#	29176
#	43823
#	55649
#	68222
#	85202
#	98012
#	114200
#	127689
#	142510
#	157329
#	172985
#	186367
#	199731
#	215068
#	229836
#
# Disc length: 3250 seconds
#
# Revision: 0
# Processed by: cddbd v1.5.2PL0 Copyright (c) Steve Scherf et al.
# Submitted via: EasyCDDAExtractor 11.0.0.1
#
DISCID=e90cb011
DTITLE=Nerildo and Nerivan - Nerildo and Nerivan Sucesso no Brasil
DYEAR=2010
DGENRE=Sertanejo
TTITLE0=Se Eu Bebo é Por Ela
TTITLE1=Caí na Real
TTITLE2=Reza Pra Nóis
TTITLE3=Calcinha de Renda
TTITLE4=Estoi Apaixonado
TTITLE5=Eu Vou Beber, Eu Vou Chorar
TTITLE6=Tpop de Linha
TTITLE7=Palavras Vazias
TTITLE8=Tô Bebendo Por Ela
TTITLE9=O Adeus é a Melhor Saída
TTITLE10=Não Me Tire do Seu Pensamento
TTITLE11=Tá Chovendo Mulher
TTITLE12=Seu Retrato
TTITLE13=Sarjeta
TTITLE14=Tô Bebendo de Tristeza
TTITLE15=Poderosa
TTITLE16=Aguenta Coração
EXTD=
EXTT0=
EXTT1=
EXTT2=
EXTT3=
EXTT4=
EXTT5=
EXTT6=
EXTT7=
EXTT8=
EXTT9=
EXTT10=
EXTT11=
EXTT12=
EXTT13=
EXTT14=
EXTT15=
EXTT16=
PLAYORDER=
